# xmcd
#
# Track frame offsets:
#	150
#	17166
#	36106
#	54326
#	72856
#	91331
#	108197
#	128206
#	141399
#	166413
#	180172
#
# Disc length: 2811 seconds
#
# Revision: 0
# Processed by: cddbd v1.5.1PL0 Copyright (c) Steve Scherf et al.
# Submitted via: dBpowerAMP V4.0
#
DISCID=8b0af90b
DTITLE=The Tony Nash Trio - Blue desert highway
DYEAR=2005
DGENRE=Blues
TTITLE0=Love me tonight
TTITLE1=Let me love you baby
TTITLE2=Dancing with the devil
TTITLE3=City of the blues
TTITLE4=Voodoo doll
TTITLE5=Villa Nova junction
TTITLE6=Heart of stone
TTITLE7=Dejavue how do you do
TTITLE8=Here to play the blues
TTITLE9=Hey mama
TTITLE10=Early in the morning - live
EXTD=
EXTT0=
EXTT1=
EXTT2=
EXTT3=
EXTT4=
EXTT5=
EXTT6=
EXTT7=
EXTT8=
EXTT9=
EXTT10=
PLAYORDER=
